<svg width="290" height="230" viewBox="0 0 290 230" fill="none" xmlns="http://www.w3.org/2000/svg">
<path d="M286.706 4.31421e-09H57.6641C56.7917 0.000765699 55.9553 0.349626 55.3384 0.969995C54.7215 1.59036 54.3746 2.43154 54.3739 3.30886V86.5654H109.804C111.305 86.5673 112.743 87.1675 113.804 88.2346C114.865 89.3016 115.462 90.7483 115.464 92.2573V162.696H286.706C287.182 162.696 287.652 162.592 288.084 162.392C288.516 162.191 288.899 161.899 289.208 161.535C289.234 161.506 289.258 161.476 289.279 161.444C289.476 161.202 289.635 160.932 289.751 160.643C289.917 160.245 290.001 159.818 290 159.387V3.30886C289.999 2.43094 289.652 1.5893 289.034 0.968866C288.416 0.348433 287.579 -4.47706e-05 286.706 4.31421e-09V4.31421e-09Z" fill="#F2F2F2"/>
<path d="M289.527 13.2625H54.842V14.2084H289.527V13.2625Z" fill="#CCCCCC"/>
<path d="M62.8373 9.93287C64.3958 9.93287 65.6591 8.66237 65.6591 7.09513C65.6591 5.52789 64.3958 4.25739 62.8373 4.25739C61.2788 4.25739 60.0154 5.52789 60.0154 7.09513C60.0154 8.66237 61.2788 9.93287 62.8373 9.93287Z" fill="#CCCCCC"/>
<path d="M70.9501 9.93287C72.5086 9.93287 73.772 8.66237 73.772 7.09513C73.772 5.52789 72.5086 4.25739 70.9501 4.25739C69.3917 4.25739 68.1283 5.52789 68.1283 7.09513C68.1283 8.66237 69.3917 9.93287 70.9501 9.93287Z" fill="#CCCCCC"/>
<path d="M79.063 9.93287C80.6215 9.93287 81.8849 8.66237 81.8849 7.09513C81.8849 5.52789 80.6215 4.25739 79.063 4.25739C77.5045 4.25739 76.2411 5.52789 76.2411 7.09513C76.2411 8.66237 77.5045 9.93287 79.063 9.93287Z" fill="#CCCCCC"/>
<path d="M231.049 33.9158H113.321C112.02 33.9158 110.772 34.4355 109.852 35.3607C108.932 36.2858 108.416 37.5405 108.416 38.8488C108.416 40.1571 108.932 41.4118 109.852 42.3369C110.772 43.262 112.02 43.7817 113.321 43.7817H231.049C232.35 43.7817 233.598 43.262 234.518 42.3369C235.438 41.4118 235.954 40.1571 235.954 38.8488C235.954 37.5405 235.438 36.2858 234.518 35.3607C233.598 34.4355 232.35 33.9158 231.049 33.9158V33.9158ZM231.049 43.0228H113.321C112.22 43.0228 111.164 42.583 110.386 41.8002C109.608 41.0175 109.17 39.9558 109.17 38.8488C109.17 37.7417 109.608 36.6801 110.386 35.8973C111.164 35.1145 112.22 34.6747 113.321 34.6747H231.049C232.15 34.6747 233.206 35.1145 233.984 35.8973C234.762 36.6801 235.2 37.7417 235.2 38.8488C235.2 39.9558 234.762 41.0175 233.984 41.8002C233.206 42.583 232.15 43.0228 231.049 43.0228Z" fill="#CCCCCC"/>
<path d="M267.073 73.2161H149.345C148.044 73.2161 146.796 73.7358 145.876 74.6609C144.957 75.5861 144.44 76.8408 144.44 78.1491C144.44 79.4574 144.957 80.7121 145.876 81.6372C146.796 82.5623 148.044 83.082 149.345 83.082H267.073C268.374 83.082 269.622 82.5623 270.542 81.6372C271.462 80.7121 271.979 79.4574 271.979 78.1491C271.979 76.8408 271.462 75.5861 270.542 74.6609C269.622 73.7358 268.374 73.2161 267.073 73.2161V73.2161Z" fill="white"/>
<path d="M267.073 91.4301H149.345C148.044 91.4301 146.796 91.9498 145.876 92.8749C144.957 93.8 144.44 95.0547 144.44 96.363C144.44 97.6713 144.957 98.926 145.876 99.8511C146.796 100.776 148.044 101.296 149.345 101.296H267.073C268.374 101.296 269.622 100.776 270.542 99.8511C271.462 98.926 271.979 97.6713 271.979 96.363C271.979 95.0547 271.462 93.8 270.542 92.8749C269.622 91.9498 268.374 91.4301 267.073 91.4301V91.4301Z" fill="white"/>
<path d="M267.073 109.644H149.345C148.044 109.644 146.796 110.164 145.876 111.089C144.957 112.014 144.44 113.269 144.44 114.577C144.44 115.885 144.957 117.14 145.876 118.065C146.796 118.99 148.044 119.51 149.345 119.51H267.073C268.374 119.51 269.622 118.99 270.542 118.065C271.462 117.14 271.979 115.885 271.979 114.577C271.979 113.269 271.462 112.014 270.542 111.089C269.622 110.164 268.374 109.644 267.073 109.644V109.644Z" fill="white"/>
<path d="M130.32 65.0579H76.7309C75.5815 65.0592 74.4795 65.519 73.6667 66.3364C72.8539 67.1537 72.3966 68.2619 72.3953 69.4178V86.5655H73.1499V69.4178C73.1514 68.4632 73.5291 67.5481 74.2004 66.8731C74.8716 66.1981 75.7816 65.8182 76.7309 65.8168H130.32C131.269 65.8176 132.18 66.1973 132.851 66.8724C133.522 67.5476 133.9 68.463 133.901 69.4178V123.308C133.9 124.263 133.522 125.179 132.851 125.854C132.18 126.529 131.269 126.908 130.32 126.909H115.464V127.668H130.32C131.47 127.667 132.572 127.208 133.385 126.39C134.198 125.573 134.655 124.464 134.655 123.308V69.4178C134.655 68.2617 134.198 67.1532 133.385 66.3357C132.572 65.5182 131.47 65.0586 130.32 65.0579V65.0579Z" fill="#CCCCCC"/>
<path d="M109.804 85.8065H6.41468C4.71414 85.8089 3.08394 86.4894 1.88148 87.6986C0.679013 88.9078 0.00240665 90.5472 0 92.2573V223.549C0.00240565 225.259 0.679012 226.899 1.88148 228.108C3.08394 229.317 4.71414 229.998 6.41468 230H109.804C111.505 229.998 113.135 229.317 114.337 228.108C115.54 226.899 116.216 225.259 116.219 223.549V92.2573C116.216 90.5472 115.54 88.9078 114.337 87.6986C113.135 86.4894 111.505 85.8089 109.804 85.8065V85.8065ZM115.464 223.549C115.462 225.058 114.866 226.505 113.804 227.572C112.743 228.639 111.305 229.239 109.804 229.241H6.41468C4.91411 229.239 3.47553 228.639 2.41446 227.572C1.3534 226.505 0.756493 225.058 0.754668 223.549V92.2573C0.756493 90.7483 1.3534 89.3016 2.41446 88.2346C3.47553 87.1675 4.91411 86.5673 6.41468 86.5654H109.804C111.305 86.5673 112.743 87.1675 113.804 88.2346C114.866 89.3016 115.462 90.7483 115.464 92.2573V223.549Z" fill="#3F3D56"/>
<path d="M89.4283 176.686H26.7909C20.3924 176.655 20.3658 166.854 26.7912 166.821H89.4283C95.8223 166.851 95.8569 176.653 89.4283 176.686Z" fill="#CCCCCC"/>
<path d="M89.4283 194.9H26.7909C20.3924 194.869 20.3658 185.068 26.7912 185.034H89.4283C95.8223 185.065 95.8569 194.867 89.4283 194.9Z" fill="#CCCCCC"/>
<path d="M89.4283 213.114H26.7909C20.3924 213.083 20.3658 203.282 26.7912 203.248H89.4283C95.8223 203.278 95.8569 213.08 89.4283 213.114Z" fill="#CCCCCC"/>
<path d="M112.823 97.9491C110.883 97.9491 108.986 97.3705 107.372 96.2864C105.759 95.2023 104.502 93.6615 103.759 91.8587C103.016 90.056 102.822 88.0723 103.201 86.1585C103.579 84.2447 104.514 82.4868 105.886 81.107C107.258 79.7272 109.006 78.7876 110.909 78.4069C112.812 78.0262 114.785 78.2216 116.577 78.9683C118.37 79.7151 119.902 80.9796 120.98 82.602C122.058 84.2245 122.634 86.1319 122.634 88.0832C122.631 90.6989 121.596 93.2066 119.757 95.0562C117.918 96.9058 115.424 97.9461 112.823 97.9491V97.9491Z" fill="#6C63FF"/>
<path d="M117.351 87.7038H113.2V82.9606C113.2 82.8599 113.16 82.7634 113.09 82.6922C113.019 82.6211 112.923 82.5811 112.823 82.5811C112.723 82.5811 112.627 82.6211 112.556 82.6922C112.485 82.7634 112.446 82.8599 112.446 82.9606V87.7038H108.295C108.195 87.7038 108.099 87.7438 108.028 87.8149C107.957 87.8861 107.918 87.9826 107.918 88.0832C107.918 88.1839 107.957 88.2804 108.028 88.3515C108.099 88.4227 108.195 88.4627 108.295 88.4627H112.446V93.2059C112.446 93.3065 112.485 93.4031 112.556 93.4742C112.627 93.5454 112.723 93.5854 112.823 93.5854C112.923 93.5854 113.019 93.5454 113.09 93.4742C113.16 93.4031 113.2 93.3065 113.2 93.2059V88.4627H117.351C117.451 88.4627 117.547 88.4227 117.618 88.3515C117.688 88.2804 117.728 88.1839 117.728 88.0832C117.728 87.9826 117.688 87.8861 117.618 87.8149C117.547 87.7438 117.451 87.7038 117.351 87.7038Z" fill="white"/>
<path d="M88.2962 154.981H27.9227C26.2721 154.98 24.6895 154.319 23.5223 153.146C22.3551 151.972 21.6986 150.38 21.6967 148.72V114.721C21.6986 113.061 22.3551 111.47 23.5223 110.296C24.6895 109.122 26.2721 108.462 27.9227 108.46H88.2962C89.9469 108.462 91.5294 109.122 92.6966 110.296C93.8638 111.47 94.5203 113.061 94.5222 114.721V148.72C94.5203 150.38 93.8638 151.972 92.6966 153.146C91.5294 154.319 89.9469 154.98 88.2962 154.981Z" fill="#6C63FF"/>
</svg>
