<svg width="340" height="220" viewBox="0 0 340 220" fill="none" xmlns="http://www.w3.org/2000/svg">
<path d="M331.677 220H8.43937C6.23285 219.998 4.11742 219.117 2.55717 217.551C0.996928 215.985 0.119288 213.861 0.116795 211.646V11.5906C0.118593 9.9681 0.761537 8.41254 1.90457 7.26521C3.04761 6.11788 4.59738 5.47248 6.21391 5.47061H333.797C335.442 5.47249 337.018 6.12903 338.181 7.2962C339.344 8.46336 339.998 10.0458 340 11.6964V211.646C339.998 213.861 339.12 215.985 337.56 217.551C335.999 219.117 333.884 219.998 331.677 220V220Z" fill="#F2F2F2"/>
<path d="M321.226 209.453H19.977C15.561 209.453 11.9683 206.076 11.9683 201.926V27.7146C11.9683 24.6364 14.6306 22.132 17.9029 22.132H323.202C326.529 22.132 329.235 24.6777 329.235 27.8066V201.926C329.235 206.076 325.642 209.453 321.226 209.453Z" fill="#F7F7FE"/>
<path d="M339.884 12.6316H0V8.37872C0.00319972 6.15663 0.884423 4.02656 2.45034 2.45579C4.01625 0.885024 6.13898 0.00184252 8.35284 0H331.531C333.745 0.00182378 335.868 0.884998 337.434 2.45577C339 4.02654 339.881 6.15663 339.884 8.37872V12.6316Z" fill="#3F3D56"/>
<path d="M15.1798 8.49699C16.3729 8.49699 17.3401 7.52609 17.3401 6.32841C17.3401 5.13074 16.3729 4.15983 15.1798 4.15983C13.9867 4.15983 13.0195 5.13074 13.0195 6.32841C13.0195 7.52609 13.9867 8.49699 15.1798 8.49699Z" fill="white"/>
<path d="M23.3808 8.49699C24.5739 8.49699 25.5411 7.52609 25.5411 6.32841C25.5411 5.13074 24.5739 4.15983 23.3808 4.15983C22.1876 4.15983 21.2204 5.13074 21.2204 6.32841C21.2204 7.52609 22.1876 8.49699 23.3808 8.49699Z" fill="white"/>
<path d="M31.5817 8.49699C32.7748 8.49699 33.742 7.52609 33.742 6.32841C33.742 5.13074 32.7748 4.15983 31.5817 4.15983C30.3885 4.15983 29.4213 5.13074 29.4213 6.32841C29.4213 7.52609 30.3885 8.49699 31.5817 8.49699Z" fill="white"/>
<path d="M163.455 60.2235H104.537C103.659 60.2235 102.816 59.8733 102.195 59.2498C101.574 58.6264 101.225 57.7809 101.225 56.8992C101.225 56.0176 101.574 55.172 102.195 54.5486C102.816 53.9252 103.659 53.575 104.537 53.575H163.455C164.333 53.575 165.176 53.9252 165.797 54.5486C166.418 55.172 166.767 56.0176 166.767 56.8992C166.767 57.7809 166.418 58.6264 165.797 59.2498C165.176 59.8733 164.333 60.2235 163.455 60.2235V60.2235Z" fill="#CCCCCC"/>
<path d="M236.666 60.2235H177.749C176.87 60.2235 176.028 59.8733 175.407 59.2498C174.786 58.6264 174.437 57.7809 174.437 56.8992C174.437 56.0176 174.786 55.172 175.407 54.5486C176.028 53.9252 176.87 53.575 177.749 53.575H236.666C237.545 53.575 238.387 53.9252 239.008 54.5486C239.629 55.172 239.978 56.0176 239.978 56.8992C239.978 57.7809 239.629 58.6264 239.008 59.2498C238.387 59.8733 237.545 60.2235 236.666 60.2235V60.2235Z" fill="#CCCCCC"/>
<path d="M236.666 72.8207H134.17C133.292 72.8207 132.449 72.4704 131.828 71.847C131.207 71.2236 130.858 70.3781 130.858 69.4964C130.858 68.6148 131.207 67.7692 131.828 67.1458C132.449 66.5224 133.292 66.1721 134.17 66.1721H236.666C237.545 66.1721 238.387 66.5224 239.008 67.1458C239.629 67.7692 239.978 68.6148 239.978 69.4964C239.978 70.3781 239.629 71.2236 239.008 71.847C238.387 72.4704 237.545 72.8207 236.666 72.8207Z" fill="#CCCCCC"/>
<path d="M163.455 47.4513H104.537C103.659 47.4502 102.818 47.0995 102.198 46.4762C101.578 45.8529 101.229 45.008 101.229 44.1271C101.229 43.2461 101.578 42.4012 102.198 41.7779C102.818 41.1546 103.659 40.8039 104.537 40.8028H163.455C163.89 40.8023 164.321 40.8878 164.724 41.0547C165.126 41.2215 165.491 41.4663 165.799 41.775C166.107 42.0837 166.352 42.4504 166.518 42.854C166.685 43.2575 166.771 43.6902 166.771 44.1271C166.771 44.5639 166.685 44.9966 166.518 45.4001C166.352 45.8037 166.107 46.1704 165.799 46.4791C165.491 46.7879 165.126 47.0326 164.724 47.1994C164.321 47.3663 163.89 47.4519 163.455 47.4513V47.4513Z" fill="#CCCCCC"/>
<path d="M195.877 47.6263H179.143C178.265 47.6263 177.422 47.276 176.801 46.6526C176.18 46.0292 175.831 45.1837 175.831 44.302C175.831 43.4204 176.18 42.5748 176.801 41.9514C177.422 41.328 178.265 40.9778 179.143 40.9778H195.877C196.755 40.9778 197.598 41.328 198.219 41.9514C198.84 42.5748 199.189 43.4204 199.189 44.302C199.189 45.1837 198.84 46.0292 198.219 46.6526C197.598 47.276 196.755 47.6263 195.877 47.6263Z" fill="#CCCCCC"/>
<path d="M121.271 72.8207H104.537C103.659 72.8196 102.818 72.4689 102.198 71.8456C101.578 71.2223 101.229 70.3773 101.229 69.4964C101.229 68.6155 101.578 67.7705 102.198 67.1472C102.818 66.5239 103.659 66.1732 104.537 66.1722H121.271C121.706 66.1716 122.137 66.2572 122.54 66.424C122.942 66.5908 123.308 66.8356 123.616 67.1443C123.924 67.4531 124.168 67.8197 124.335 68.2233C124.501 68.6269 124.587 69.0595 124.587 69.4964C124.587 69.9333 124.501 70.3659 124.335 70.7695C124.168 71.1731 123.924 71.5397 123.616 71.8485C123.308 72.1572 122.942 72.402 122.54 72.5688C122.137 72.7356 121.706 72.8212 121.271 72.8207Z" fill="#CCCCCC"/>
<path d="M163.455 178.185H104.537C103.659 178.185 102.816 177.835 102.195 177.212C101.574 176.588 101.225 175.743 101.225 174.861C101.225 173.979 101.574 173.134 102.195 172.51C102.816 171.887 103.659 171.537 104.537 171.537H163.455C163.89 171.537 164.32 171.623 164.722 171.79C165.124 171.957 165.489 172.202 165.797 172.51C166.104 172.819 166.348 173.185 166.515 173.589C166.681 173.992 166.767 174.424 166.767 174.861C166.767 175.297 166.681 175.73 166.515 176.133C166.348 176.536 166.104 176.903 165.797 177.212C165.489 177.52 165.124 177.765 164.722 177.932C164.32 178.099 163.89 178.185 163.455 178.185V178.185Z" fill="#CCCCCC"/>
<path d="M236.666 178.185H177.749C176.87 178.185 176.028 177.835 175.407 177.212C174.786 176.588 174.437 175.743 174.437 174.861C174.437 173.979 174.786 173.134 175.407 172.51C176.028 171.887 176.87 171.537 177.749 171.537H236.666C237.101 171.537 237.532 171.623 237.934 171.79C238.336 171.957 238.701 172.202 239.008 172.51C239.316 172.819 239.56 173.185 239.726 173.589C239.893 173.992 239.978 174.424 239.978 174.861C239.978 175.297 239.893 175.73 239.726 176.133C239.56 176.536 239.316 176.903 239.008 177.212C238.701 177.52 238.336 177.765 237.934 177.932C237.532 178.099 237.101 178.185 236.666 178.185V178.185Z" fill="#CCCCCC"/>
<path d="M236.666 190.782H134.17C133.292 190.782 132.449 190.432 131.828 189.809C131.207 189.185 130.858 188.34 130.858 187.458C130.858 186.576 131.207 185.731 131.828 185.108C132.449 184.484 133.292 184.134 134.17 184.134H236.666C237.102 184.133 237.533 184.219 237.935 184.386C238.337 184.553 238.703 184.797 239.011 185.106C239.319 185.415 239.563 185.781 239.73 186.185C239.897 186.589 239.982 187.021 239.982 187.458C239.982 187.895 239.897 188.328 239.73 188.731C239.563 189.135 239.319 189.501 239.011 189.81C238.703 190.119 238.337 190.364 237.935 190.53C237.533 190.697 237.102 190.783 236.666 190.782Z" fill="#CCCCCC"/>
<path d="M163.455 165.413H104.537C103.659 165.413 102.816 165.063 102.195 164.439C101.574 163.816 101.225 162.97 101.225 162.089C101.225 161.207 101.574 160.362 102.195 159.738C102.816 159.115 103.659 158.764 104.537 158.764H163.455C164.333 158.764 165.176 159.115 165.797 159.738C166.418 160.362 166.767 161.207 166.767 162.089C166.767 162.97 166.418 163.816 165.797 164.439C165.176 165.063 164.333 165.413 163.455 165.413Z" fill="#CCCCCC"/>
<path d="M195.877 165.588H179.143C178.265 165.588 177.422 165.238 176.801 164.614C176.18 163.991 175.831 163.145 175.831 162.264C175.831 161.382 176.18 160.537 176.801 159.913C177.422 159.29 178.265 158.939 179.143 158.939H195.877C196.755 158.939 197.598 159.29 198.219 159.913C198.84 160.537 199.189 161.382 199.189 162.264C199.189 163.145 198.84 163.991 198.219 164.614C197.598 165.238 196.755 165.588 195.877 165.588V165.588Z" fill="#CCCCCC"/>
<path d="M121.271 190.782H104.537C103.659 190.782 102.816 190.432 102.195 189.809C101.574 189.185 101.225 188.34 101.225 187.458C101.225 186.576 101.574 185.731 102.195 185.108C102.816 184.484 103.659 184.134 104.537 184.134H121.271C121.706 184.133 122.137 184.219 122.54 184.386C122.942 184.553 123.308 184.797 123.616 185.106C123.924 185.415 124.168 185.781 124.335 186.185C124.501 186.589 124.587 187.021 124.587 187.458C124.587 187.895 124.501 188.328 124.335 188.731C124.168 189.135 123.924 189.501 123.616 189.81C123.308 190.119 122.942 190.364 122.54 190.53C122.137 190.697 121.706 190.783 121.271 190.782Z" fill="#CCCCCC"/>
<path d="M148.067 142.497C146.817 142.499 145.616 142.006 144.726 141.125L122.579 119.173C122.144 118.742 121.799 118.229 121.563 117.663C121.328 117.097 121.206 116.49 121.206 115.876C121.206 115.263 121.328 114.656 121.563 114.09C121.799 113.524 122.144 113.01 122.579 112.579L144.637 90.7164C145.556 89.81 146.794 89.3039 148.082 89.308C149.371 89.3121 150.605 89.826 151.519 90.7382C152.433 91.6577 152.946 92.9037 152.946 94.2027C152.946 95.5018 152.433 96.7478 151.519 97.6674L135.128 114.12C134.617 114.633 134.33 115.329 134.33 116.055C134.33 116.781 134.617 117.477 135.128 117.991L151.43 134.354C152.096 135.02 152.549 135.871 152.733 136.797C152.917 137.722 152.823 138.682 152.463 139.554C152.102 140.426 151.493 141.171 150.71 141.695C149.928 142.219 149.008 142.498 148.067 142.497V142.497Z" fill="#6C63FF"/>
<path d="M183.358 142.497C182.417 142.498 181.498 142.219 180.715 141.695C179.933 141.171 179.323 140.426 178.963 139.554C178.602 138.682 178.508 137.722 178.692 136.796C178.876 135.871 179.33 135.02 179.995 134.354L196.297 117.991C196.808 117.477 197.095 116.781 197.095 116.055C197.095 115.329 196.808 114.633 196.297 114.12L179.906 97.6673C179.453 97.2124 179.094 96.6722 178.848 96.0778C178.603 95.4833 178.477 94.8462 178.477 94.2027C178.477 93.5593 178.603 92.9222 178.848 92.3277C179.094 91.7332 179.453 91.1931 179.906 90.7382V90.7382C180.82 89.8259 182.055 89.312 183.343 89.308C184.631 89.3039 185.869 89.81 186.788 90.7164L208.846 112.579C209.281 113.01 209.626 113.524 209.862 114.09C210.097 114.656 210.219 115.263 210.219 115.876C210.219 116.489 210.097 117.097 209.862 117.663C209.626 118.229 209.281 118.742 208.846 119.173L186.699 141.124C185.809 142.006 184.608 142.499 183.358 142.497Z" fill="#6C63FF"/>
</svg>
