<svg width="396" height="40" viewBox="0 0 396 40" fill="none" xmlns="http://www.w3.org/2000/svg">
<path d="M0.0625 4.39062C0.0625 3.51563 0.359375 2.78125 0.953125 2.1875C1.57812 1.5625 2.32812 1.25 3.20312 1.25H30.4844C31.3594 1.25 32.1094 1.54688 32.7344 2.14062C33.3281 2.76563 33.625 3.51563 33.625 4.39062C33.625 5.26562 33.3125 6.01562 32.6875 6.64062C32.0938 7.23438 31.3594 7.53125 30.4844 7.53125H20.0312V26.5156C19.8438 28.3906 18.8125 29.4062 16.9375 29.5625C16.0625 29.5625 15.2969 29.2812 14.6406 28.7188C14.0156 28.125 13.7031 27.3906 13.7031 26.5156V7.53125H3.20312C2.32812 7.53125 1.59375 7.21875 1 6.59375C0.375 6 0.0625 5.26562 0.0625 4.39062ZM48.1562 28.9062C45.4062 28.8125 43.3281 28.1719 41.9219 26.9844C40.5156 25.7656 39.5 24.4062 38.875 22.9062C38.25 21.375 37.9375 19.8281 37.9375 18.2656C37.9375 16.6406 38.2344 15.0781 38.8281 13.5781C39.4531 12.0469 40.4688 10.6875 41.875 9.5C43.3125 8.28125 45.125 7.65625 47.3125 7.625H65.125C66 7.625 66.7344 7.92188 67.3281 8.51562C67.9531 9.07812 68.2656 9.76562 68.2656 10.5781C68.2656 11.4219 67.9531 12.1406 67.3281 12.7344C66.7344 13.2969 66 13.5781 65.125 13.5781H47.5938C46.9062 13.5781 46.2969 13.8125 45.7656 14.2812C45.2656 14.75 44.8906 15.3594 44.6406 16.1094C44.4219 16.8594 44.3125 17.5938 44.3125 18.3125C44.3125 19.0938 44.4219 19.8594 44.6406 20.6094C44.8906 21.3594 45.2656 21.9688 45.7656 22.4375C46.2969 22.875 46.9062 23.1094 47.5938 23.1406H65.125C66 23.1406 66.7344 23.4219 67.3281 23.9844C67.9531 24.5469 68.2656 25.2188 68.2656 26C68.2656 26.8125 67.9531 27.5 67.3281 28.0625C66.7344 28.625 66 28.9062 65.125 28.9062H48.1562ZM67.7031 18.1719C67.7031 18.7656 67.4375 19.2812 66.9062 19.7188C66.4375 20.125 65.8438 20.3281 65.125 20.3281H49.7969C49.0781 20.3281 48.4688 20.125 47.9688 19.7188C47.4688 19.2812 47.2188 18.7656 47.2188 18.1719C47.2188 17.6094 47.4688 17.1094 47.9688 16.6719C48.4688 16.2656 49.0781 16.0625 49.7969 16.0625H65.125C65.8438 16.0625 66.4531 16.2812 66.9531 16.7188C67.4531 17.125 67.7031 17.6094 67.7031 18.1719ZM83.1719 28.9062C80.4219 28.8125 78.3438 28.1719 76.9375 26.9844C75.5312 25.7656 74.5156 24.4062 73.8906 22.9062C73.2656 21.375 72.9531 19.8281 72.9531 18.2656C72.9531 16.6406 73.25 15.0781 73.8438 13.5781C74.4688 12.0469 75.4844 10.6875 76.8906 9.5C78.3281 8.28125 80.1406 7.65625 82.3281 7.625H100.141C101.016 7.625 101.75 7.9375 102.344 8.5625C102.969 9.15625 103.281 9.89062 103.281 10.7656C103.281 11.6406 102.969 12.3906 102.344 13.0156C101.75 13.6094 101.016 13.9062 100.141 13.9062H82.1406C81.5469 13.9062 81.0312 14.1562 80.5938 14.6562C80.1562 15.125 79.8281 15.6875 79.6094 16.3438C79.4219 16.9688 79.3281 17.5938 79.3281 18.2188C79.3281 18.875 79.4219 19.5312 79.6094 20.1875C79.8281 20.8125 80.1562 21.375 80.5938 21.875C81.0312 22.3438 81.5469 22.5938 82.1406 22.625H100.141C101.016 22.625 101.75 22.9375 102.344 23.5625C102.969 24.1562 103.281 24.8906 103.281 25.7656C103.281 26.6406 102.969 27.375 102.344 27.9688C101.75 28.5938 101.016 28.9062 100.141 28.9062H83.1719ZM111.438 0.5C112.281 0.53125 113 0.84375 113.594 1.4375C114.188 2 114.5 2.70312 114.531 3.54688V7.625H129.062C131.25 7.65625 133.047 8.28125 134.453 9.5C135.891 10.6875 136.906 12.0312 137.5 13.5312C138.125 15.0625 138.438 16.6406 138.438 18.2656H138.484V26.4219C138.484 27.2969 138.156 28.0312 137.5 28.625C136.875 29.1875 136.125 29.4688 135.25 29.4688C133.375 29.3125 132.344 28.2969 132.156 26.4219V18.2188C132.156 17.625 132.031 17 131.781 16.3438C131.562 15.6875 131.234 15.125 130.797 14.6562C130.359 14.1562 129.844 13.9062 129.25 13.9062H114.531V26.5156C114.344 28.3906 113.312 29.4062 111.438 29.5625C110.562 29.5625 109.797 29.2812 109.141 28.7188C108.516 28.125 108.203 27.3906 108.203 26.5156V3.54688C108.234 2.67188 108.562 1.95312 109.188 1.39062C109.812 0.796875 110.562 0.5 111.438 0.5ZM154.938 21.6406C154.938 20.7656 155.234 20.0312 155.828 19.4375C156.453 18.8125 157.203 18.5 158.078 18.5H165.25L164.031 15.0312C163.531 13.75 163.031 12.5469 162.531 11.4219C162.062 10.2656 161.516 9.21875 160.891 8.28125C160.328 7.34375 159.688 6.84375 158.969 6.78125C158.219 6.84375 157.547 7.34375 156.953 8.28125C156.359 9.21875 155.812 10.2656 155.312 11.4219C154.844 12.5469 154.359 13.75 153.859 15.0312L149.406 27.2188C149.094 27.875 148.688 28.4219 148.188 28.8594C147.719 29.2656 147 29.4688 146.031 29.4688C145.125 29.4688 144.375 29.1562 143.781 28.5312C143.219 27.9062 142.969 27.1562 143.031 26.2812C143.062 25.875 143.156 25.5 143.312 25.1562L148.469 11.8438C149.906 8.34375 151.344 5.51562 152.781 3.35938C154.188 1.23437 156.25 0.15625 158.969 0.125C161.656 0.15625 163.703 1.23437 165.109 3.35938C166.547 5.45312 167.984 8.28125 169.422 11.8438L174.578 25.1562C174.734 25.5 174.828 25.875 174.859 26.2812C174.922 27.1562 174.656 27.9062 174.062 28.5312C173.5 29.1562 172.766 29.4688 171.859 29.4688C170.828 29.4688 170.062 29.2656 169.562 28.8594C169.094 28.4219 168.703 27.875 168.391 27.2188L167.5 24.7812H158.078C157.203 24.7812 156.469 24.4688 155.875 23.8438C155.25 23.25 154.938 22.5156 154.938 21.6406ZM189.062 28.9062C186.312 28.8125 184.234 28.1719 182.828 26.9844C181.422 25.7656 180.406 24.4062 179.781 22.9062C179.156 21.375 178.844 19.8281 178.844 18.2656C178.844 16.6406 179.141 15.0781 179.734 13.5781C180.359 12.0469 181.375 10.6875 182.781 9.5C184.219 8.28125 186.031 7.65625 188.219 7.625H206.031C206.906 7.625 207.641 7.9375 208.234 8.5625C208.859 9.15625 209.172 9.89062 209.172 10.7656C209.172 11.6406 208.859 12.3906 208.234 13.0156C207.641 13.6094 206.906 13.9062 206.031 13.9062H188.031C187.438 13.9062 186.922 14.1562 186.484 14.6562C186.047 15.125 185.719 15.6875 185.5 16.3438C185.312 16.9688 185.219 17.5938 185.219 18.2188C185.219 18.875 185.312 19.5312 185.5 20.1875C185.719 20.8125 186.047 21.375 186.484 21.875C186.922 22.3438 187.438 22.5938 188.031 22.625H206.031C206.906 22.625 207.641 22.9375 208.234 23.5625C208.859 24.1562 209.172 24.8906 209.172 25.7656C209.172 26.6406 208.859 27.375 208.234 27.9688C207.641 28.5938 206.906 28.9062 206.031 28.9062H189.062ZM240.297 26.4219V15.125C240.297 14.3438 239.891 13.9375 239.078 13.9062H222.672C222.078 13.9375 221.562 14.2031 221.125 14.7031C220.688 15.1719 220.359 15.7344 220.141 16.3906C219.953 17.0156 219.859 17.6562 219.859 18.3125C219.859 18.9375 219.953 19.5781 220.141 20.2344C220.359 20.8594 220.688 21.4219 221.125 21.9219C221.562 22.3906 222.078 22.625 222.672 22.625H234.672C235.547 22.625 236.281 22.9375 236.875 23.5625C237.5 24.1562 237.812 24.8906 237.812 25.7656C237.812 26.6406 237.5 27.375 236.875 27.9688C236.281 28.5938 235.547 28.9062 234.672 28.9062H222.859C220.672 28.875 218.859 28.2656 217.422 27.0781C216.016 25.8594 215 24.5 214.375 23C213.781 21.4688 213.484 19.8906 213.484 18.2656C213.484 16.7031 213.797 15.1719 214.422 13.6719C215.047 12.1406 216.062 10.7812 217.469 9.59375C218.875 8.375 220.953 7.71875 223.703 7.625H243.391C244.266 7.625 245.016 7.92188 245.641 8.51562C246.266 9.07812 246.594 9.79688 246.625 10.6719V26.4219C246.625 27.2969 246.297 28.0312 245.641 28.625C245.016 29.1875 244.266 29.4688 243.391 29.4688C241.516 29.3125 240.484 28.2969 240.297 26.4219ZM278.781 3.54688C278.969 1.67188 280 0.65625 281.875 0.5C282.75 0.5 283.5 0.796875 284.125 1.39062C284.781 1.95312 285.109 2.67188 285.109 3.54688V25.8594C285.078 26.7344 284.75 27.4688 284.125 28.0625C283.5 28.625 282.75 28.9062 281.875 28.9062H262.188C259.438 28.8125 257.359 28.1719 255.953 26.9844C254.547 25.7656 253.531 24.4062 252.906 22.9062C252.281 21.375 251.969 19.8281 251.969 18.2656C251.969 16.6406 252.266 15.0781 252.859 13.5781C253.484 12.0469 254.5 10.6875 255.906 9.5C257.344 8.28125 259.156 7.65625 261.344 7.625H273.156C274.031 7.625 274.766 7.9375 275.359 8.5625C275.984 9.15625 276.297 9.89062 276.297 10.7656C276.297 11.6406 275.984 12.3906 275.359 13.0156C274.766 13.6094 274.031 13.9062 273.156 13.9062H261.156C260.562 13.9062 260.047 14.1562 259.609 14.6562C259.172 15.125 258.844 15.6875 258.625 16.3438C258.438 16.9688 258.344 17.5938 258.344 18.2188C258.344 18.875 258.438 19.5312 258.625 20.1875C258.844 20.8125 259.172 21.375 259.609 21.875C260.047 22.3438 260.562 22.5938 261.156 22.625H277.562C278.375 22.5938 278.781 22.1875 278.781 21.4062V3.54688ZM300.906 28.9062C298.156 28.8125 296.078 28.1719 294.672 26.9844C293.266 25.7656 292.25 24.4062 291.625 22.9062C291 21.375 290.688 19.8281 290.688 18.2656C290.688 16.6406 290.984 15.0781 291.578 13.5781C292.203 12.0469 293.219 10.6875 294.625 9.5C296.062 8.28125 297.875 7.65625 300.062 7.625H317.875C318.75 7.625 319.484 7.92188 320.078 8.51562C320.703 9.07812 321.016 9.76562 321.016 10.5781C321.016 11.4219 320.703 12.1406 320.078 12.7344C319.484 13.2969 318.75 13.5781 317.875 13.5781H300.344C299.656 13.5781 299.047 13.8125 298.516 14.2812C298.016 14.75 297.641 15.3594 297.391 16.1094C297.172 16.8594 297.062 17.5938 297.062 18.3125C297.062 19.0938 297.172 19.8594 297.391 20.6094C297.641 21.3594 298.016 21.9688 298.516 22.4375C299.047 22.875 299.656 23.1094 300.344 23.1406H317.875C318.75 23.1406 319.484 23.4219 320.078 23.9844C320.703 24.5469 321.016 25.2188 321.016 26C321.016 26.8125 320.703 27.5 320.078 28.0625C319.484 28.625 318.75 28.9062 317.875 28.9062H300.906ZM320.453 18.1719C320.453 18.7656 320.188 19.2812 319.656 19.7188C319.188 20.125 318.594 20.3281 317.875 20.3281H302.547C301.828 20.3281 301.219 20.125 300.719 19.7188C300.219 19.2812 299.969 18.7656 299.969 18.1719C299.969 17.6094 300.219 17.1094 300.719 16.6719C301.219 16.2656 301.828 16.0625 302.547 16.0625H317.875C318.594 16.0625 319.203 16.2812 319.703 16.7188C320.203 17.125 320.453 17.6094 320.453 18.1719ZM336.344 6.92188C337.438 6.92188 338.5 7.10938 339.531 7.48438C340.594 7.85938 341.609 8.40625 342.578 9.125C342.734 9.28125 342.906 9.4375 343.094 9.59375C343.25 9.4375 343.422 9.28125 343.609 9.125C344.578 8.40625 345.578 7.85938 346.609 7.48438C347.672 7.10938 348.734 6.92188 349.797 6.92188C350.891 6.92188 351.953 7.10938 352.984 7.48438C354.047 7.85938 355.047 8.42188 355.984 9.17188C356.953 9.89062 357.797 10.8594 358.516 12.0781C359.266 13.2969 359.641 14.75 359.641 16.4375V26.4219C359.453 28.2969 358.422 29.3125 356.547 29.4688C355.672 29.4688 354.906 29.1875 354.25 28.625C353.625 28.0312 353.312 27.2969 353.312 26.4219V16.8125C353.312 16.0625 353.172 15.4375 352.891 14.9375C352.609 14.4062 352.297 14 351.953 13.7188C351.609 13.4062 351.25 13.1875 350.875 13.0625C350.5 12.9062 350.125 12.8281 349.75 12.8281C349.375 12.8281 349 12.9062 348.625 13.0625C348.281 13.1875 347.938 13.4062 347.594 13.7188C347.25 14 346.938 14.4062 346.656 14.9375C346.375 15.4375 346.219 16.0625 346.188 16.8125V26.4219C346 28.2969 344.969 29.3125 343.094 29.4688C342.219 29.4688 341.453 29.1875 340.797 28.625C340.172 28.0312 339.859 27.2969 339.859 26.4219V16.8125C339.859 16.0625 339.719 15.4375 339.438 14.9375C339.156 14.4062 338.844 14 338.5 13.7188C338.156 13.4062 337.797 13.1875 337.422 13.0625C337.047 12.9062 336.672 12.8281 336.297 12.8281C335.922 12.8281 335.547 12.9062 335.172 13.0625C334.828 13.1875 334.484 13.4062 334.141 13.7188C333.797 14 333.484 14.4062 333.203 14.9375C332.922 15.4375 332.766 16.0625 332.734 16.8125V26.4219C332.578 28.2969 331.562 29.3125 329.688 29.4688C328.812 29.4688 328.047 29.1875 327.391 28.625C326.766 28.0312 326.453 27.2969 326.453 26.4219V16.4375C326.516 14.75 326.906 13.2969 327.625 12.0781C328.344 10.8594 329.188 9.89062 330.156 9.17188C331.125 8.42188 332.125 7.85938 333.156 7.48438C334.219 7.10938 335.281 6.92188 336.344 6.92188ZM368.594 7.0625C369.469 7.0625 370.219 7.35938 370.844 7.95312C371.469 8.51562 371.797 9.23438 371.828 10.1094V14.8438C371.797 16.125 371.875 17.3125 372.062 18.4062C372.281 19.4688 372.781 20.4219 373.562 21.2656C374.344 22.1094 375.328 22.5625 376.516 22.625H389.031V10.2031C389.031 9.32812 389.344 8.60938 389.969 8.04688C390.625 7.45312 391.391 7.15625 392.266 7.15625C394.141 7.3125 395.172 8.32812 395.359 10.2031V25.4844C395.359 27.9844 395.016 30.3438 394.328 32.5625C393.703 34.5312 392.672 36.1875 391.234 37.5312C389.828 38.9062 388.031 39.6562 385.844 39.7812H369.625C368.781 39.75 368.062 39.4375 367.469 38.8438C366.906 38.2812 366.609 37.5781 366.578 36.7344C366.578 35.8594 366.859 35.1094 367.422 34.4844C368.016 33.8594 368.75 33.5312 369.625 33.5H384.25C385.438 33.4375 386.422 32.9844 387.203 32.1406C387.984 31.2969 388.484 30.3125 388.703 29.1875C388.734 29.0938 388.75 29 388.75 28.9062H374.922C372.734 28.7812 370.922 28.0469 369.484 26.7031C368.078 25.3281 367.062 23.6562 366.438 21.6875C365.844 19.7188 365.531 17.625 365.5 15.4062V10.1094C365.531 9.26562 365.844 8.5625 366.438 8C367.031 7.40625 367.75 7.09375 368.594 7.0625Z" fill="white"/>
</svg>
